<mxfile host="65bd71144e">
    <diagram id="MtP6OcE7_2eRh4blc5Ur" name="Page-1">
        <mxGraphModel dx="2779" dy="832" grid="0" gridSize="10" guides="1" tooltips="1" connect="1" arrows="1" fold="1" page="1" pageScale="1" pageWidth="850" pageHeight="1100" math="0" shadow="0">
            <root>
                <mxCell id="0"/>
                <mxCell id="1" parent="0"/>
                <mxCell id="2" value="" style="shape=ext;double=1;rounded=1;whiteSpace=wrap;html=1;" parent="1" vertex="1">
                    <mxGeometry x="-220" y="412" width="220" height="382" as="geometry"/>
                </mxCell>
                <mxCell id="9" style="edgeStyle=none;html=1;" parent="1" source="8" edge="1">
                    <mxGeometry relative="1" as="geometry">
                        <mxPoint x="-109.75" y="396" as="targetPoint"/>
                    </mxGeometry>
                </mxCell>
                <mxCell id="18" style="edgeStyle=none;html=1;" parent="1" source="8" edge="1">
                    <mxGeometry relative="1" as="geometry">
                        <mxPoint x="-109.75" y="282" as="targetPoint"/>
                    </mxGeometry>
                </mxCell>
                <mxCell id="8" value="corpo do return&lt;div&gt;rota /login&lt;/div&gt;" style="text;strokeColor=none;fillColor=none;html=1;fontSize=15;fontStyle=1;verticalAlign=middle;align=left;" parent="1" vertex="1">
                    <mxGeometry x="-184.25" y="310" width="149" height="33" as="geometry"/>
                </mxCell>
                <mxCell id="11" value="" style="shape=ext;double=1;rounded=1;whiteSpace=wrap;html=1;" parent="1" vertex="1">
                    <mxGeometry x="-767.06" y="433" width="251" height="292" as="geometry"/>
                </mxCell>
                <mxCell id="15" style="edgeStyle=none;html=1;" parent="1" edge="1">
                    <mxGeometry relative="1" as="geometry">
                        <mxPoint x="-466.34571428571417" y="437.8571428571429" as="targetPoint"/>
                        <mxPoint x="-513.0599999999995" y="456.81552863436127" as="sourcePoint"/>
                    </mxGeometry>
                </mxCell>
                <mxCell id="14" style="edgeStyle=none;html=1;" parent="1" source="13" edge="1">
                    <mxGeometry relative="1" as="geometry">
                        <mxPoint x="-610.56" y="423" as="targetPoint"/>
                    </mxGeometry>
                </mxCell>
                <mxCell id="21" style="edgeStyle=none;html=1;" parent="1" source="13" edge="1">
                    <mxGeometry relative="1" as="geometry">
                        <mxPoint x="-610.56" y="318" as="targetPoint"/>
                    </mxGeometry>
                </mxCell>
                <mxCell id="13" value="corpo da requisição&amp;nbsp;&lt;div&gt;rota /cadastrar&lt;/div&gt;" style="text;strokeColor=none;fillColor=none;html=1;fontSize=15;fontStyle=1;verticalAlign=middle;align=left;" parent="1" vertex="1">
                    <mxGeometry x="-685.06" y="342" width="149" height="40" as="geometry"/>
                </mxCell>
                <mxCell id="16" value="dados do usuário a serem&amp;nbsp;&lt;div&gt;enviados&amp;nbsp;&lt;/div&gt;" style="text;strokeColor=none;fillColor=none;html=1;fontSize=15;fontStyle=1;verticalAlign=middle;align=left;" parent="1" vertex="1">
                    <mxGeometry x="-461.05999999999995" y="405" width="149" height="40" as="geometry"/>
                </mxCell>
                <mxCell id="17" value="Rotas da API&lt;div&gt;URUBU DO PIX&lt;/div&gt;" style="text;strokeColor=none;fillColor=none;html=1;fontSize=27;fontStyle=1;verticalAlign=middle;align=center;labelBorderColor=default;labelBackgroundColor=none;textShadow=0;horizontal=1;" parent="1" vertex="1">
                    <mxGeometry x="167" y="4" width="145" height="93" as="geometry"/>
                </mxCell>
                <mxCell id="19" value="methods=[&quot;GET&quot;]" style="text;strokeColor=none;fillColor=none;html=1;fontSize=15;fontStyle=1;verticalAlign=middle;align=left;" parent="1" vertex="1">
                    <mxGeometry x="-176.25" y="239" width="149" height="40" as="geometry"/>
                </mxCell>
                <mxCell id="20" value="methods=[&quot;PUT&quot;]" style="text;strokeColor=none;fillColor=none;html=1;fontSize=15;fontStyle=1;verticalAlign=middle;align=left;" parent="1" vertex="1">
                    <mxGeometry x="-679.06" y="275" width="149" height="40" as="geometry"/>
                </mxCell>
                <mxCell id="45" style="edgeStyle=none;html=1;entryX=0.5;entryY=0;entryDx=0;entryDy=0;" edge="1" parent="1" source="5" target="40">
                    <mxGeometry relative="1" as="geometry"/>
                </mxCell>
                <mxCell id="5" value="&lt;br&gt;&lt;div&gt;&quot;nome&quot;: &quot;user&quot;,&lt;/div&gt;&lt;div&gt;&quot;senha&quot;: &quot;12345678&quot;,&lt;/div&gt;&lt;div&gt;&quot;e-mail&quot;: &quot;g@gamail.com&quot;,&lt;/div&gt;&lt;div&gt;&quot;telefone&quot;: &quot;9959594354&quot;,&lt;/div&gt;&lt;div&gt;&quot;data-nascimento&quot;: &quot;11/07/2002&quot;&lt;/div&gt;" style="text;strokeColor=none;fillColor=none;html=1;fontSize=13;fontStyle=1;verticalAlign=middle;align=left;" parent="1" vertex="1">
                    <mxGeometry x="-734.06" y="468" width="117" height="85" as="geometry"/>
                </mxCell>
                <mxCell id="27" value="login" style="text;strokeColor=none;fillColor=none;html=1;fontSize=27;fontStyle=1;verticalAlign=middle;align=center;labelBorderColor=default;labelBackgroundColor=none;textShadow=0;horizontal=1;" vertex="1" parent="1">
                    <mxGeometry x="-184.25" y="422" width="145" height="93" as="geometry"/>
                </mxCell>
                <mxCell id="48" style="edgeStyle=orthogonalEdgeStyle;html=1;curved=1;" edge="1" parent="1" source="28" target="11">
                    <mxGeometry relative="1" as="geometry">
                        <mxPoint x="-497.82352941176487" y="648" as="targetPoint"/>
                        <Array as="points">
                            <mxPoint x="-498" y="706"/>
                            <mxPoint x="-498" y="579"/>
                        </Array>
                    </mxGeometry>
                </mxCell>
                <mxCell id="55" value="redirect url" style="edgeLabel;html=1;align=center;verticalAlign=middle;resizable=0;points=[];fontSize=18;" vertex="1" connectable="0" parent="48">
                    <mxGeometry x="-0.162" y="-7" relative="1" as="geometry">
                        <mxPoint as="offset"/>
                    </mxGeometry>
                </mxCell>
                <mxCell id="28" value="cadastrar" style="rounded=1;whiteSpace=wrap;html=1;" vertex="1" parent="1">
                    <mxGeometry x="-166" y="693" width="100" height="27" as="geometry"/>
                </mxCell>
                <mxCell id="51" style="edgeStyle=none;html=1;" edge="1" parent="1" source="34">
                    <mxGeometry relative="1" as="geometry">
                        <mxPoint x="397.47058823529414" y="478.5882352941178" as="targetPoint"/>
                    </mxGeometry>
                </mxCell>
                <mxCell id="54" value="redirect url" style="edgeLabel;html=1;align=center;verticalAlign=middle;resizable=0;points=[];fontSize=19;" vertex="1" connectable="0" parent="51">
                    <mxGeometry x="0.1243" y="-3" relative="1" as="geometry">
                        <mxPoint as="offset"/>
                    </mxGeometry>
                </mxCell>
                <mxCell id="34" value="login" style="rounded=1;whiteSpace=wrap;html=1;" vertex="1" parent="1">
                    <mxGeometry x="-166" y="635" width="100" height="27" as="geometry"/>
                </mxCell>
                <mxCell id="37" style="edgeStyle=none;html=1;" edge="1" parent="1" source="35" target="34">
                    <mxGeometry relative="1" as="geometry"/>
                </mxCell>
                <mxCell id="35" value="&lt;div&gt;&lt;span style=&quot;background-color: transparent;&quot;&gt;&quot;e-mail&quot;: &quot;g@gamail.com&quot;,&lt;/span&gt;&lt;/div&gt;&lt;div&gt;&lt;span style=&quot;background-color: transparent;&quot;&gt;&quot;senha&quot;: &quot;12345678&quot;&lt;/span&gt;&lt;/div&gt;&lt;div&gt;&lt;br&gt;&lt;/div&gt;" style="text;strokeColor=none;fillColor=none;html=1;fontSize=15;fontStyle=1;verticalAlign=middle;align=left;" vertex="1" parent="1">
                    <mxGeometry x="-203" y="520" width="210" height="60" as="geometry"/>
                </mxCell>
                <mxCell id="38" value="" style="rounded=1;whiteSpace=wrap;html=1;" vertex="1" parent="1">
                    <mxGeometry x="423" y="403" width="334" height="144" as="geometry"/>
                </mxCell>
                <mxCell id="50" style="edgeStyle=orthogonalEdgeStyle;html=1;elbow=vertical;curved=1;rounded=0;entryX=0;entryY=0.5;entryDx=0;entryDy=0;" edge="1" parent="1" source="40" target="2">
                    <mxGeometry relative="1" as="geometry">
                        <mxPoint x="-232" y="595" as="targetPoint"/>
                    </mxGeometry>
                </mxCell>
                <mxCell id="40" value="cadastrar" style="rounded=1;whiteSpace=wrap;html=1;" vertex="1" parent="1">
                    <mxGeometry x="-691.56" y="631" width="100" height="28" as="geometry"/>
                </mxCell>
                <mxCell id="52" value="&lt;div&gt;&quot;nome&quot;: &quot;nome do usuário&quot;,&lt;/div&gt;&lt;div&gt;&quot;saldo&quot;:&amp;nbsp; &quot;0000&quot;,&lt;/div&gt;&lt;div&gt;&quot;e-mail&quot;: &quot;g@gmial.com&quot;&lt;/div&gt;&lt;div&gt;&lt;br&gt;&lt;/div&gt;" style="text;strokeColor=none;fillColor=none;html=1;fontSize=15;fontStyle=1;verticalAlign=middle;align=left;" vertex="1" parent="1">
                    <mxGeometry x="480" y="365" width="210" height="220" as="geometry"/>
                </mxCell>
                <mxCell id="53" value="Home" style="text;strokeColor=none;fillColor=none;html=1;fontSize=22;fontStyle=1;verticalAlign=middle;align=left;" vertex="1" parent="1">
                    <mxGeometry x="554" y="372" width="55" height="21" as="geometry"/>
                </mxCell>
                <mxCell id="56" value="methods=[&quot;GET&quot;]&lt;div&gt;rota /home&lt;/div&gt;" style="text;strokeColor=none;fillColor=none;html=1;fontSize=15;fontStyle=1;verticalAlign=middle;align=left;" vertex="1" parent="1">
                    <mxGeometry x="529" y="285" width="149" height="40" as="geometry"/>
                </mxCell>
            </root>
        </mxGraphModel>
    </diagram>
</mxfile>